#!OML:ASF H:\BreakDance\Project 1\Capture day 1\Session 1\Male.ASF
:FULLY-SPECIFIED
:DEGREES
249
root -4.87013 15.4476 -1.43422 -170.089 -81.2269 176.563
lowerback -3.10508 -2.8983 0.361627
upperback 4.23155 -3.91385 -0.767333
thorax 6.05253 -1.92245 -1.32427
lowerneck -28.5929 9.00866 -1.07213
upperneck 44.4192 -76.9056 -40.9279
head 43.6827 -68.8012 -173.936
rclavicle -1.21259e-014 -2.38542e-015
rhumerus -31.5163 -13.0959 -87.6629
rradius 38.1621
rwrist -7.42574
rhand -11.5252 -29.6017
rfingers 7.12502
rthumb 14.5145 -59.074
lclavicle -1.21259e-014 -2.38542e-015
lhumerus -25.2757 -29.5861 96.2854
lradius 35.7327
lwrist 6.84588
lhand -22.7442 -37.5283
lfingers 7.12502
lthumb 3.69008 -7.58055
rfemur -28.8108 -12.0711 18.3403
rtibia 63.3587
rfoot -33.8281 1.13663
rtoes -4.51861
lfemur -24.4406 9.2759 -6.83976
ltibia 62.1602
lfoot -30.1537 12.911
ltoes -32.5553
250
root -4.89749 15.4205 -1.47402 -169.442 -81.0004 175.799
lowerback -2.96302 -2.79319 0.287652
upperback 4.36935 -3.77145 -0.818446
thorax 6.12086 -1.85561 -1.32197
lowerneck -28.785 8.87784 -1.0353
upperneck 44.856 -76.9853 -41.3974
head 43.534 -69.0064 -173.644
rclavicle 5.12864e-014 -1.70955e-014
rhumerus -30.7063 -12.3885 -87.6935
rradius 37.5934
rwrist -7.16496
rhand -11.0818 -29.4466
rfingers 7.12502
rthumb 14.9417 -58.8877
lclavicle 5.12864e-014 -1.70955e-014
lhumerus -24.3252 -28.2983 95.4297
lradius 34.3867
lwrist 6.13203
lhand -23.2053 -37.4723
lfingers 7.12502
lthumb 3.24479 -7.51723
rfemur -28.7141 -11.8831 18.2838
rtibia 63.6888
rfoot -34.0932 1.00804
rtoes -4.30488
lfemur -25.5171 9.42725 -7.1864
ltibia 63.9979
lfoot -29.7076 12.2083
ltoes -32.8379
251
root -4.92908 15.3967 -1.5131 -169.174 -80.8408 175.462
lowerback -2.90237 -2.70513 0.286127
upperback 4.50814 -3.65683 -0.850054
thorax 6.23326 -1.79892 -1.34681
lowerneck -28.9762 8.76053 -0.992213
upperneck 45.0759 -77.0442 -41.6434
head 43.3879 -69.151 -173.398
rclavicle 9.74045e-015 2.38542e-015
rhumerus -29.8489 -11.634 -87.7229
rradius 36.9094
rwrist -6.85298
rhand -10.6568 -29.2233
rfingers 7.12502
rthumb 15.3511 -58.6334
lclavicle 9.74045e-015 2.38542e-015
lhumerus -23.4386 -26.8433 94.5605
lradius 33.1678
lwrist 5.31913
lhand -23.5687 -37.2594
lfingers 7.12502
lthumb 2.89393 -7.29932
rfemur -28.6037 -11.7214 18.3163
rtibia 63.9568
rfoot -34.3831 0.845234
rtoes -4.61123
lfemur -26.6683 9.59926 -7.5009
ltibia 65.7832
lfoot -29.2339 11.5662
ltoes -33.1012
252
root -4.96451 15.3765 -1.55106 -169.298 -80.7493 175.56
lowerback -2.904 -2.62741 0.372071
upperback 4.64372 -3.56174 -0.863231
thorax 6.37388 -1.74753 -1.406
lowerneck -29.1635 8.65075 -0.945675
upperneck 45.1887 -77.1016 -41.7743
head 43.2784 -69.268 -173.225
rclavicle -1.8487e-014 -6.75868e-015
rhumerus -28.9392 -10.88 -87.7349
rradius 36.0933
rwrist -6.45116
rhand -10.3393 -28.9578
rfingers 7.12502
rthumb 15.6569 -58.3442
lclavicle -1.8487e-014 -6.75868e-015
lhumerus -22.6268 -25.2833 93.6936
lradius 32.0743
lwrist 4.43771
lhand -23.8679 -36.9116
lfingers 7.12502
lthumb 2.6049 -6.94774
rfemur -28.4804 -11.5892 18.4402
rtibia 64.1673
rfoot -34.6788 0.658337
rtoes -5.21906
lfemur -27.8887 9.785 -7.779
ltibia 67.5066
lfoot -28.7458 10.9911
ltoes -33.3205
253
root -5.00233 15.3592 -1.58776 -169.706 -80.7043 175.969
lowerback -2.92485 -2.54976 0.527748
upperback 4.77066 -3.4711 -0.869551
thorax 6.51323 -1.69471 -1.49777
lowerneck -29.3451 8.54278 -0.902777
upperneck 45.3263 -77.1823 -41.9171
head 43.2295 -69.3737 -173.141
rclavicle 2.32578e-014 -8.34896e-015
rhumerus -27.9933 -10.1602 -87.7259
rradius 35.1594
rwrist -5.96625
rhand -10.1381 -28.6564
rfingers 7.12502
rthumb 15.8506 -58.0276
lclavicle 2.32578e-014 -8.34896e-015
lhumerus -21.9073 -23.7147 92.8375
lradius 31.1083
lwrist 3.57212
lhand -24.1492 -36.4758
lfingers 7.12502
lthumb 2.33331 -6.50878
rfemur -28.3515 -11.4622 18.6299
rtibia 64.3371
rfoot -34.9568 0.449704
rtoes -5.79373
lfemur -29.1552 9.98801 -8.04262
ltibia 69.1577
lfoot -28.2611 10.4787
ltoes -33.4884
254
root -5.03991 15.343 -1.6233 -170.29 -80.6809 176.555
lowerback -2.89731 -2.46862 0.716599
upperback 4.87775 -3.37768 -0.872343
thorax 6.60273 -1.63921 -1.60061
lowerneck -29.5066 8.43556 -0.872891
upperneck 45.5327 -77.2779 -42.1205
head 43.2189 -69.469 -173.106
rclavicle -2.9122e-014 -1.74931e-014
rhumerus -27.064 -9.46185 -87.6913
rradius 34.1678
rwrist -5.41729
rhand -9.9855 -28.3819
rfingers 7.12502
rthumb 15.9976 -57.7414
lclavicle -2.9122e-014 -1.74931e-014
lhumerus -21.3073 -22.1922 92.007
lradius 30.2751
lwrist 2.79533
lhand -24.4489 -36.0108
lfingers 7.12502
lthumb 2.04379 -6.04084
rfemur -28.2248 -11.2998 18.8597
rtibia 64.4907
rfoot -35.1949 0.208872
rtoes -6.20857
lfemur -30.4296 10.2333 -8.31659
ltibia 70.7292
lfoot -27.7887 10.0489
ltoes -33.6924
255
root -5.07607 15.3277 -1.65773 -170.96 -80.6677 177.212
lowerback -2.78412 -2.38289 0.910122
upperback 4.96156 -3.2777 -0.873197
thorax 6.61882 -1.58112 -1.6982
lowerneck -29.6482 8.32582 -0.859634
upperneck 45.8366 -77.3852 -42.4183
head 43.2395 -69.5679 -173.101
rclavicle 1.03368e-014 3.18055e-015
rhumerus -26.1963 -8.78584 -87.6256
rradius 33.1841
rwrist -4.80251
rhand -9.80149 -28.2163
rfingers 7.12502
rthumb 16.1748 -57.5614
lclavicle 1.03368e-014 3.18055e-015
lhumerus -20.8271 -20.7535 91.2078
lradius 29.5711
lwrist 2.16496
lhand -24.7796 -35.5465
lfingers 7.12502
lthumb 1.72446 -5.57375
rfemur -28.0914 -11.0851 19.1071
rtibia 64.6353
rfoot -35.3927 -0.0805449
rtoes -6.50857
lfemur -31.6991 10.5028 -8.60935
ltibia 72.2077
lfoot -27.3275 9.63096
ltoes -33.7036
256
root -5.11042 15.3123 -1.69124 -171.668 -80.6645 177.891
lowerback -2.58305 -2.29288 1.09212
upperback 5.02516 -3.17012 -0.871082
thorax 6.56444 -1.52098 -1.78081
lowerneck -29.7795 8.20839 -0.86966
upperneck 46.3275 -77.5177 -42.8999
head 43.2981 -69.6851 -173.121
rclavicle -5.46658e-015 -1.59028e-015
rhumerus -25.408 -8.12866 -87.5265
rradius 32.2563
rwrist -4.15205
rhand -9.49823 -28.1822
rfingers 7.12502
rthumb 16.4668 -57.5034
lclavicle -5.46658e-015 -1.59028e-015
lhumerus -20.453 -19.4403 90.4408
lradius 29.0061
lwrist 1.75437
lhand -25.1297 -35.0536
lfingers 7.12502
lthumb 1.38627 -5.07837
rfemur -27.9445 -10.8223 19.3615
rtibia 64.7679
rfoot -35.5649 -0.412741
rtoes -6.67703
lfemur -32.9619 10.7865 -8.92613
ltibia 73.5826
lfoot -26.8788 9.19946
ltoes -33.5103
257
root -5.14349 15.2967 -1.72382 -172.486 -80.683 178.669
lowerback -2.29314 -2.19984 1.27755
upperback 5.06146 -3.05688 -0.860316
thorax 6.43102 -1.45933 -1.85124
lowerneck -29.8962 8.08433 -0.912246
upperneck 47.038 -77.6837 -43.5921
head 43.4044 -69.8009 -173.181
rclavicle -2.48481e-015 1.31198e-014
rhumerus -24.7345 -7.47232 -87.3882
rradius 31.4341
rwrist -3.51599
rhand -9.04371 -28.3004
rfingers 7.12502
rthumb 16.9044 -57.5847
lclavicle -2.48481e-015 1.31198e-014
lhumerus -20.1987 -18.2997 89.7212
lradius 28.6084
lwrist 1.61021
lhand -25.479 -34.4737
lfingers 7.12502
lthumb 1.04897 -4.49649
rfemur -27.7712 -10.5328 19.6341
rtibia 64.8717
rfoot -35.724 -0.768812
rtoes -6.79462
lfemur -34.2282 11.0622 -9.24978
ltibia 74.8394
lfoot -26.4433 8.75709
ltoes -33.1396
258
root -5.17703 15.2822 -1.75533 -173.429 -80.7371 179.567
lowerback -1.94509 -2.10494 1.47988
upperback 5.07715 -2.93997 -0.841575
thorax 6.24289 -1.39618 -1.92016
lowerneck -30.0091 7.93437 -0.972341
upperneck 47.9599 -77.8674 -44.4945
head 43.4785 -69.92 -173.179
rclavicle 3.89618e-014 -1.31198e-014
rhumerus -24.1767 -6.84028 -87.2093
rradius 30.7283
rwrist -2.90513
rhand -8.50757 -28.4946
rfingers 7.12502
rthumb 17.4204 -57.734
lclavicle 3.89618e-014 -1.31198e-014
lhumerus -20.0631 -17.3839 89.0599
lradius 28.3859
lwrist 1.8063
lhand -25.819 -33.8242
lfingers 7.12502
lthumb 0.720517 -3.84565
rfemur -27.5537 -10.2496 19.924
rtibia 64.9262
rfoot -35.8802 -1.12876
rtoes -6.99881
lfemur -35.5069 11.2936 -9.57926
ltibia 75.9628
lfoot -26.0143 8.32955
ltoes -32.6444
259
root -5.21224 15.2694 -1.78583 -174.544 -80.8346 180.647
lowerback -1.59511 -2.00895 1.7102
upperback 5.09286 -2.82183 -0.811814
thorax 6.05415 -1.33154 -1.99443
lowerneck -30.1458 7.76337 -1.05211
upperneck 48.9251 -78.0634 -45.4369
head 43.543 -70.0104 -173.17
rclavicle 2.01766e-014 1.68967e-014
rhumerus -23.6928 -6.25847 -86.9944
rradius 30.1169
rwrist -2.32359
rhand -7.98178 -28.6497
rfingers 7.12502
rthumb 17.9264 -57.8436
lclavicle 2.01766e-014 1.68967e-014
lhumerus -20.012 -16.7126 88.4525
lradius 28.34
lwrist 2.32443
lhand -26.1608 -33.1207
lfingers 7.12502
lthumb 0.390479 -3.14128
rfemur -27.2931 -9.98913 20.2406
rtibia 64.9193
rfoot -36.035 -1.47694
rtoes -7.2915
lfemur -36.7952 11.468 -9.9097
ltibia 76.9445
lfoot -25.6193 7.92791
ltoes -32.1563
260
root -5.24948 15.2587 -1.81539 -175.947 -80.9701 182.041
lowerback -1.27737 -1.9111 1.98557
upperback 5.11313 -2.70291 -0.762227
thorax 5.88911 -1.2646 -2.07609
lowerneck -30.3083 7.57357 -1.14721
upperneck 49.7291 -78.2387 -46.2257
head 43.5728 -70.0596 -173.137
rclavicle -1.78906e-014 -4.37326e-015
rhumerus -23.2695 -5.71353 -86.7461
rradius 29.5993
rwrist -1.79602
rhand -7.52051 -28.7701
rfingers 7.12502
rthumb 18.3702 -57.9226
lclavicle -1.78906e-014 -4.37326e-015
lhumerus -20.0271 -16.2723 87.8971
lradius 28.4592
lwrist 3.04398
lhand -26.5139 -32.3913
lfingers 7.12502
lthumb 0.0493629 -2.4116
rfemur -27.0126 -9.75294 20.6086
rtibia 64.8473
rfoot -36.179 -1.81865
rtoes -7.64441
lfemur -38.0894 11.5975 -10.2239
ltibia 77.7817
lfoot -25.2846 7.54653
ltoes -31.7036
261
root -5.29074 15.2517 -1.84395 -177.473 -81.1326 183.576
lowerback -1.01906 -1.81401 2.28017
upperback 5.14693 -2.58615 -0.698574
thorax 5.77359 -1.19746 -2.1581
lowerneck -30.4949 7.37539 -1.25892
upperneck 50.2503 -78.3801 -46.7439
head 43.5837 -70.0647 -173.106
rclavicle 3.74709e-014 1.41137e-014
rhumerus -22.8971 -5.17531 -86.4694
rradius 29.1657
rwrist -1.35702
rhand -7.16402 -28.8483
rfingers 7.12502
rthumb 18.7131 -57.9682
lclavicle 3.74709e-014 1.41137e-014
lhumerus -20.098 -16.0317 87.3959
lradius 28.7219
lwrist 3.84322
lhand -26.8934 -31.6697
lfingers 7.12502
lthumb -0.317125 -1.69015
rfemur -26.6994 -9.56 20.9859
rtibia 64.7073
rfoot -36.3099 -2.14953
rtoes -8.00964
lfemur -39.3518 11.6872 -10.5571
ltibia 78.4624
lfoot -25.0253 7.17951
ltoes -31.2801
262
root -5.34011 15.2495 -1.8714 -178.588 -81.3301 184.684
lowerback -0.865155 -1.72475 2.52748
upperback 5.21224 -2.47951 -0.648732
thorax 5.75312 -1.13547 -2.23447
lowerneck -30.6934 7.17943 -1.40152
upperneck 50.5431 -78.4981 -47.0424
head 43.6152 -70.0261 -173.121
rclavicle 6.4605e-015 1.15295e-014
rhumerus -22.582 -4.61775 -86.1703
rradius 28.8086
rwrist -1.03242
rhand -6.92239 -28.865
rfingers 7.12502
rthumb 18.9455 -57.9623
lclavicle 6.4605e-015 1.15295e-014
lhumerus -20.2331 -15.9555 86.9538
lradius 29.1146
lwrist 4.65589
lhand -27.2756 -31.0053
lfingers 7.12502
lthumb -0.686307 -1.02667
rfemur -26.2948 -9.46669 21.2492
rtibia 64.4975
rfoot -36.435 -2.42979
rtoes -8.37917
lfemur -40.4782 11.7335 -11.0195
ltibia 78.9583
lfoot -24.8602 6.8964
ltoes -31.0871
